ffmpeg version 2.8.11-0ubuntu0.16.04.1 Copyright (c) 2000-2017 the FFmpeg developers
  built with gcc 5.4.0 (Ubuntu 5.4.0-6ubuntu1~16.04.4) 20160609
  configuration: --prefix=/usr --extra-version=0ubuntu0.16.04.1 --build-suffix=-ffmpeg --toolchain=hardened --libdir=/usr/lib/x86_64-linux-gnu --incdir=/usr/include/x86_64-linux-gnu --cc=cc --cxx=g++ --enable-gpl --enable-shared --disable-stripping --disable-decoder=libopenjpeg --disable-decoder=libschroedinger --enable-avresample --enable-avisynth --enable-gnutls --enable-ladspa --enable-libass --enable-libbluray --enable-libbs2b --enable-libcaca --enable-libcdio --enable-libflite --enable-libfontconfig --enable-libfreetype --enable-libfribidi --enable-libgme --enable-libgsm --enable-libmodplug --enable-libmp3lame --enable-libopenjpeg --enable-libopus --enable-libpulse --enable-librtmp --enable-libschroedinger --enable-libshine --enable-libsnappy --enable-libsoxr --enable-libspeex --enable-libssh --enable-libtheora --enable-libtwolame --enable-libvorbis --enable-libvpx --enable-libwavpack --enable-libwebp --enable-libx265 --enable-libxvid --enable-libzvbi --enable-openal --enable-opengl --enable-x11grab --enable-libdc1394 --enable-libiec61883 --enable-libzmq --enable-frei0r --enable-libx264 --enable-libopencv
  libavutil      54. 31.100 / 54. 31.100
  libavcodec     56. 60.100 / 56. 60.100
  libavformat    56. 40.101 / 56. 40.101
  libavdevice    56.  4.100 / 56.  4.100
  libavfilter     5. 40.101 /  5. 40.101
  libavresample   2.  1.  0 /  2.  1.  0
  libswscale      3.  1.101 /  3.  1.101
  libswresample   1.  2.101 /  1.  2.101
  libpostproc    53.  3.100 / 53.  3.100
[mp3 @ 0x13708c0] Unknown attached picture mimetype: ('image/png', None), skipping.
[mp3 @ 0x13708c0] Skipping 0 bytes of junk at 17522.
Input #0, mp3, from '02-honore-de-balzac-male-niedole-pozycia-malzenskiego-czesc-1-przedmowa.mp3':
  Metadata:
    title           : 02. Honore Balzac, "Małe niedole pożycia małżeńskiego", część 1 przedmowa.
    artist          : Wiktor Korzeniewski
    album           : Wolne Lektury
    genre           : 0
    encoder         : Lavf53.21.1
    URL             : http://wolnelektury.pl/katalog/lektura/balzac-komedia-luǳka-male-niedole-pozycia-malzenskiego
    date            : 2014
    CONDUCTOR       : Adam Bień
    PROJECT         : Słuchamy Polski finansowanego przez Ministerstwo Kultury i Dziedzictwa Narodowego
    TCD             : 75617262132
    performer       : Adam Bień
    album_artist    : Fundacja Nowoczesna Polska
    copyright       : 2014 Fundacja Nowoczesna Polska. Licensed to the public under http://creativecommons.org/licenses/by-sa/3.0/deed.pl verify at http://wolnelektury.pl/katalog/lektura/balzac-komedia-ludzka-male-niedole-pozycia-malzenskiego
    encoded_by      : Adam Bień
    publisher       : Fundacja Nowoczesna Polska
  Duration: 00:01:51.15, start: 0.000000, bitrate: 65 kb/s
    Stream #0:0: Audio: mp3, 44100 Hz, mono, s16p, 64 kb/s
Output #0, null, to 'pipe:':
  Metadata:
    title           : 02. Honore Balzac, "Małe niedole pożycia małżeńskiego", część 1 przedmowa.
    artist          : Wiktor Korzeniewski
    album           : Wolne Lektury
    genre           : 0
    URL             : http://wolnelektury.pl/katalog/lektura/balzac-komedia-luǳka-male-niedole-pozycia-malzenskiego
    date            : 2014
    CONDUCTOR       : Adam Bień
    PROJECT         : Słuchamy Polski finansowanego przez Ministerstwo Kultury i Dziedzictwa Narodowego
    TCD             : 75617262132
    performer       : Adam Bień
    album_artist    : Fundacja Nowoczesna Polska
    copyright       : 2014 Fundacja Nowoczesna Polska. Licensed to the public under http://creativecommons.org/licenses/by-sa/3.0/deed.pl verify at http://wolnelektury.pl/katalog/lektura/balzac-komedia-ludzka-male-niedole-pozycia-malzenskiego
    encoded_by      : Adam Bień
    publisher       : Fundacja Nowoczesna Polska
    encoder         : Lavf56.40.101
    Stream #0:0: Audio: pcm_s16le, 44100 Hz, mono, s16, 705 kb/s
    Metadata:
      encoder         : Lavc56.60.100 pcm_s16le
Stream mapping:
  Stream #0:0 -> #0:0 (mp3 (native) -> pcm_s16le (native))
Press [q] to stop, [?] for help
[silencedetect @ 0x13839c0] silence_start: 1.48531
[silencedetect @ 0x13839c0] silence_end: 2.01143 | silence_duration: 0.526122
[silencedetect @ 0x13839c0] silence_start: 6.7098
[silencedetect @ 0x13839c0] silence_end: 7.28816 | silence_duration: 0.578367
[silencedetect @ 0x13839c0] silence_start: 11.0722
[silencedetect @ 0x13839c0] silence_end: 11.6245 | silence_duration: 0.552245
[silencedetect @ 0x13839c0] silence_start: 18.7784
[silencedetect @ 0x13839c0] silence_end: 19.6441 | silence_duration: 0.865714
[silencedetect @ 0x13839c0] silence_start: 34.9482
[silencedetect @ 0x13839c0] silence_end: 35.5265 | silence_duration: 0.578367
[silencedetect @ 0x13839c0] silence_start: 37.7955
[silencedetect @ 0x13839c0] silence_end: 38.3739 | silence_duration: 0.578367
[silencedetect @ 0x13839c0] silence_start: 40.5645
[silencedetect @ 0x13839c0] silence_end: 41.6131 | silence_duration: 1.04857
[silencedetect @ 0x13839c0] silence_start: 45.1098
[silencedetect @ 0x13839c0] silence_end: 45.9233 | silence_duration: 0.813469
[silencedetect @ 0x13839c0] silence_start: 47.931
[silencedetect @ 0x13839c0] silence_end: 48.7184 | silence_duration: 0.787347
[silencedetect @ 0x13839c0] silence_start: 53.7041
[silencedetect @ 0x13839c0] silence_end: 54.2824 | silence_duration: 0.578367
[silencedetect @ 0x13839c0] silence_start: 59.9212
[silencedetect @ 0x13839c0] silence_end: 60.7869 | silence_duration: 0.865714
[silencedetect @ 0x13839c0] silence_start: 62.9253
[silencedetect @ 0x13839c0] silence_end: 64.1306 | silence_duration: 1.20531
[silencedetect @ 0x13839c0] silence_start: 69.3514
[silencedetect @ 0x13839c0] silence_end: 70.3478 | silence_duration: 0.996327
[silencedetect @ 0x13839c0] silence_start: 71.8331
[silencedetect @ 0x13839c0] silence_end: 72.4898 | silence_duration: 0.656735
[silencedetect @ 0x13839c0] silence_start: 76.0127
[silencedetect @ 0x13839c0] silence_end: 77.1657 | silence_duration: 1.15306
[silencedetect @ 0x13839c0] silence_start: 87.5327
[silencedetect @ 0x13839c0] silence_end: 88.0588 | silence_duration: 0.526122
[silencedetect @ 0x13839c0] silence_start: 102.84
[silencedetect @ 0x13839c0] silence_end: 103.706 | silence_duration: 0.865714
[silencedetect @ 0x13839c0] silence_start: 104.12
[silencedetect @ 0x13839c0] silence_end: 104.62 | silence_duration: 0.5
[silencedetect @ 0x13839c0] silence_start: 108.692
[silencedetect @ 0x13839c0] silence_end: 109.192 | silence_duration: 0.5
[silencedetect @ 0x13839c0] silence_start: 110.181
size=N/A time=00:01:51.15 bitrate=N/A    
video:0kB audio:9574kB subtitle:0kB other streams:0kB global headers:0kB muxing overhead: unknown
